# Blender v2.83.5 OBJ File: ''
# www.blender.org
mtllib CornellBox-Mirror2.mtl
o CornellBox-Mirror
v -1.010000 -0.000000 0.990000
v 1.000000 -0.000000 0.990000
v 1.000000 0.000000 -1.040000
v -0.990000 0.000000 -1.040000
v -1.020000 1.990000 0.990000
v -1.020000 1.990000 -1.040000
v 1.000000 1.990000 -1.040000
v 1.000000 1.990000 0.990000
v -0.990000 0.000000 -1.040000
v 1.000000 0.000000 -1.040000
v 1.000000 1.990000 -1.040000
v -1.020000 1.990000 -1.040000
v 1.000000 0.000000 -1.040000
v 1.000000 -0.000000 0.990000
v 1.000000 1.990000 0.990000
v 1.000000 1.990000 -1.040000
v -1.010000 -0.000000 0.990000
v -0.990000 0.000000 -1.040000
v -1.020000 1.990000 -1.040000
v -1.020000 1.990000 0.990000

vn 0.0000 1.0000 0.0000
vn 0.0000 -1.0000 -0.0000
vn 0.0000 -0.0000 1.0000
vn -1.0000 0.0000 0.0000
vn 0.9999 0.0100 0.0049
vn -0.9536 0.0000 -0.3011
vn -0.2964 -0.0000 0.9551
vn 0.9596 -0.0000 0.2813
vn 0.2858 0.0000 -0.9583
vn -0.9551 0.0000 0.2964
vn -0.3011 0.0000 -0.9536
vn 0.9551 0.0000 -0.2964
vn 0.3011 -0.0000 0.9536
usemtl floor
s off
f 1//1 2//1 3//1 4//1
usemtl ceiling
f 5//2 6//2 7//2 8//2
usemtl backWall
f 9//3 10//3 11//3 12//3
usemtl rightWall
f 13//4 14//4 15//4 16//4
usemtl leftWall
f 17//5 18//5 19//5 20//5
